<svg 
 xmlns="http://www.w3.org/2000/svg"
 xmlns:xlink="http://www.w3.org/1999/xlink"
 width="16px" height="10px">
<path fill-rule="evenodd"  fill="rgb(241, 74, 88)"
 d="M15.041,9.835 L15.843,8.975 C15.950,8.861 16.004,8.729 16.004,8.580 C16.004,8.431 15.950,8.299 15.843,8.185 L8.367,0.178 C8.260,0.063 8.137,0.006 7.998,0.006 C7.859,0.006 7.736,0.063 7.629,0.178 L0.152,8.185 C0.045,8.299 -0.008,8.431 -0.008,8.580 C-0.008,8.729 0.045,8.861 0.152,8.975 L0.954,9.835 C1.061,9.949 1.184,10.006 1.323,10.006 C1.462,10.006 1.585,9.949 1.692,9.835 L7.998,3.081 L14.303,9.835 C14.410,9.949 14.533,10.006 14.672,10.006 C14.811,10.006 14.934,9.949 15.041,9.835 L15.041,9.835 Z"/>
</svg>